<?xml version="1.0" encoding="utf-8"?>
<!-- Generator: Adobe Illustrator 24.0.0, SVG Export Plug-In . SVG Version: 6.00 Build 0)  -->
<svg version="1.1" id="Layer_1" xmlns="http://www.w3.org/2000/svg" xmlns:xlink="http://www.w3.org/1999/xlink" x="0px" y="0px"
	 viewBox="0 0 44 48.7" style="enable-background:new 0 0 44 48.7;" xml:space="preserve">
<title>Untitled-1</title>
<path d="M21.2,7.4c1.5-0.3,3-0.8,4.4-1.3c5.7-2.3,16.9-6.4,17-1.2c0,2.8-1,5.6-3.9,5.9c-3.1,0.4-9.5-1.5-18.5,1.4
	c-6.9,2.2-9,3.7-9.4,5.8c-0.6,3.5,4,5.4,6.3,2.8c18.5-21.4,38,3.9,15,15.9c-0.9,0.5-2.2,1.3-3.3,2.2c-0.8,0.6-0.3,1.9,0.7,1.8
	c5.8-0.8,15.1-1.2,11.8,3.3c-1.4,1.9-3.8,2.7-6.1,2.1c-4.4-1-7.9-1.8-14.4-1.3c-17.7,1.4-9.2-7.7-4.6-6.7c4.7,1.2,11.5-3,11.5-3
	c1.7-1.3,3.3-2.8,4.5-4.5c9-12.8-12.5-15.2-18.1,0.5c-2.4,6.6-6.9,11.1-8,3.7c-0.9-6,3.7-8.2-3.4-14.3C-5,13.7,14.5,8.8,21.2,7.4z
	 M31.6,28c0-3.2-2.6-5.9-5.9-5.9s-5.9,2.6-5.9,5.9s2.6,5.9,5.9,5.9S31.6,31.3,31.6,28z"/>
</svg>
